<?xml version="1.0" encoding="UTF-8" standalone="no"?><!DOCTYPE svg PUBLIC "-//W3C//DTD SVG 1.1//EN" "http://www.w3.org/Graphics/SVG/1.1/DTD/svg11.dtd"><svg width="100%" height="100%" viewBox="0 0 123 123" version="1.1" xmlns="http://www.w3.org/2000/svg" xmlns:xlink="http://www.w3.org/1999/xlink" xml:space="preserve" xmlns:serif="http://www.serif.com/" style="fill-rule:evenodd;clip-rule:evenodd;stroke-linejoin:round;stroke-miterlimit:2;"><rect id="ds_b4" x="0" y="0" width="122.88" height="122.88" style="fill:none;"/><clipPath id="_clip1"><rect id="ds_b41" serif:id="ds_b4" x="0" y="0" width="122.88" height="122.88"/></clipPath><g clip-path="url(#_clip1)"><path d="M61.68,0c33.91,0 61.44,27.53 61.44,61.44c0,33.91 -27.53,61.44 -61.44,61.44c-33.91,0 -61.44,-27.53 -61.44,-61.44c0,-33.91 27.53,-61.44 61.44,-61.44Zm0,7c-30.046,0 -54.44,24.394 -54.44,54.44c0,30.046 24.394,54.44 54.44,54.44c30.046,0 54.44,-24.394 54.44,-54.44c0,-30.046 -24.394,-54.44 -54.44,-54.44Z" style="fill:#F4EDE2"/><path d="M61.68,24.331l37.336,66.538l-74.671,0l37.336,-66.538Zm0,14.305l-25.381,45.233l50.762,0l-25.381,-45.233Z" style="fill:#F4EDE2"/></g></svg>