<?xml version="1.0" encoding="UTF-8" standalone="no"?><!DOCTYPE svg PUBLIC "-//W3C//DTD SVG 1.1//EN" "http://www.w3.org/Graphics/SVG/1.1/DTD/svg11.dtd"><svg width="100%" height="100%" viewBox="0 0 123 123" version="1.1" xmlns="http://www.w3.org/2000/svg" xmlns:xlink="http://www.w3.org/1999/xlink" xml:space="preserve" xmlns:serif="http://www.serif.com/" style="fill-rule:evenodd;clip-rule:evenodd;stroke-linecap:square;stroke-linejoin:round;stroke-miterlimit:1.5;"><rect id="ds_b1" x="0" y="0" width="122.88" height="122.88" style="fill:none;"/><g><path d="M61.44,0c33.91,0 61.44,27.53 61.44,61.44c0,33.91 -27.53,61.44 -61.44,61.44c-33.91,0 -61.44,-27.53 -61.44,-61.44c-0,-33.91 27.53,-61.44 61.44,-61.44Zm0,7c-30.046,0 -54.44,24.394 -54.44,54.44c-0,30.046 24.394,54.44 54.44,54.44c30.046,0 54.44,-24.394 54.44,-54.44c0,-30.046 -24.394,-54.44 -54.44,-54.44Z" style="fill:#F4EDE2"/><g><path d="M37.903,37.903l47.074,47.074" style="fill:none;stroke:#F4EDE2;stroke-width:7px;"/><path d="M84.977,37.903l-47.074,47.074" style="fill:none;stroke:#F4EDE2;stroke-width:7px;"/></g></g></svg>