<?xml version="1.0" encoding="UTF-8" standalone="no"?><!DOCTYPE svg PUBLIC "-//W3C//DTD SVG 1.1//EN" "http://www.w3.org/Graphics/SVG/1.1/DTD/svg11.dtd"><svg width="100%" height="100%" viewBox="0 0 512 512" version="1.1" xmlns="http://www.w3.org/2000/svg" xmlns:xlink="http://www.w3.org/1999/xlink" xml:space="preserve" xmlns:serif="http://www.serif.com/" style="fill-rule:evenodd;clip-rule:evenodd;stroke-linejoin:round;stroke-miterlimit:2;"><rect id="ds_start" x="0" y="0" width="512" height="512" style="fill:none;"/><g id="ds_start1" serif:id="ds_start"><path d="M348.5,210.5l0,209c0,51.052 -41.448,92.5 -92.5,92.5c-51.052,0 -92.5,-41.448 -92.5,-92.5l0,-209c0,-51.052 41.448,-92.5 92.5,-92.5c51.052,0 92.5,41.448 92.5,92.5Zm-29.167,0c0,-34.955 -28.379,-63.333 -63.333,-63.333c-34.955,0 -63.333,28.379 -63.333,63.333l0,209c0,34.955 28.379,63.333 63.333,63.333c34.955,0 63.333,-28.379 63.333,-63.333l0,-209Z" style="fill:#FFD9A0"/><rect x="198.367" y="18.511" width="115.265" height="15.903" style="fill:#FFD9A0"/><rect x="198.367" y="50.385" width="115.265" height="15.903" style="fill:#FFD9A0"/><rect x="198.367" y="82.881" width="115.265" height="15.903" style="fill:#FFD9A0"/></g></svg>