<?xml version="1.0" encoding="UTF-8" standalone="no"?><!DOCTYPE svg PUBLIC "-//W3C//DTD SVG 1.1//EN" "http://www.w3.org/Graphics/SVG/1.1/DTD/svg11.dtd"><svg width="100%" height="100%" viewBox="0 0 512 512" version="1.1" xmlns="http://www.w3.org/2000/svg" xmlns:xlink="http://www.w3.org/1999/xlink" xml:space="preserve" xmlns:serif="http://www.serif.com/" style="fill-rule:evenodd;clip-rule:evenodd;stroke-linejoin:round;stroke-miterlimit:2;"><rect id="ds_b2" x="0" y="0" width="512" height="512" style="fill:none;"/><g><path d="M256,0c141.29,0 256,114.71 256,256c0,141.29 -114.71,256 -256,256c-141.29,0 -256,-114.71 -256,-256c0,-141.29 114.71,-256 256,-256Zm0,29.167c-125.193,0 -226.833,101.641 -226.833,226.833c-0,125.193 101.641,226.833 226.833,226.833c125.193,0 226.833,-101.641 226.833,-226.833c0,-125.193 -101.641,-226.833 -226.833,-226.833Z" style="fill:#A8AECB"/><path d="M256,117.379c76.507,0 138.621,62.114 138.621,138.621c0,76.507 -62.114,138.621 -138.621,138.621c-76.507,0 -138.621,-62.114 -138.621,-138.621c0,-76.507 62.114,-138.621 138.621,-138.621Zm0,29.167c-60.41,0 -109.455,49.045 -109.455,109.455c0,60.41 49.045,109.455 109.455,109.455c60.41,0 109.455,-49.045 109.455,-109.455c0,-60.41 -49.045,-109.455 -109.455,-109.455Z" style="fill:#A8AECB"/></g></svg>