<?xml version="1.0" encoding="UTF-8" standalone="no"?><!DOCTYPE svg PUBLIC "-//W3C//DTD SVG 1.1//EN" "http://www.w3.org/Graphics/SVG/1.1/DTD/svg11.dtd"><svg width="100%" height="100%" viewBox="0 0 512 512" version="1.1" xmlns="http://www.w3.org/2000/svg" xmlns:xlink="http://www.w3.org/1999/xlink" xml:space="preserve" xmlns:serif="http://www.serif.com/" style="fill-rule:evenodd;clip-rule:evenodd;stroke-linejoin:round;stroke-miterlimit:2;"><rect id="ds_rb" x="0" y="0" width="512" height="512" style="fill:none;"/><g id="ds_rb1" serif:id="ds_rb"><path d="M512,152.132l0,179.994c0,38.208 -31.02,69.228 -69.228,69.228l-415.08,0c-15.283,0 -27.691,-12.408 -27.691,-27.691l0,-124.611c0,-68.775 55.836,-124.611 124.611,-124.611l359.697,0c15.283,0 27.691,12.408 27.691,27.691Zm-482.833,220.056l413.605,0c22.111,0 40.062,-17.951 40.062,-40.062l0,-178.519l-358.222,0c-52.677,0 -95.445,42.767 -95.445,95.445l0,123.136Z" style="fill:#A8AECB"/><g><path d="M153.292,343.972l-23.083,0l0,-165.08l52.928,0c7.928,0 15.467,0.816 22.617,2.448c7.15,1.632 13.407,4.236 18.77,7.811c5.363,3.575 9.599,8.277 12.707,14.106c3.109,5.829 4.663,12.941 4.663,21.335c0,12.125 -3.731,21.917 -11.192,29.379c-7.461,7.461 -17.099,12.202 -28.912,14.223l46.166,75.778l-27.98,0l-41.97,-73.447l-24.715,0l0,73.447Zm0,-92.799l26.581,0c5.44,0 10.492,-0.466 15.156,-1.399c4.663,-0.933 8.744,-2.448 12.241,-4.547c3.497,-2.098 6.257,-4.819 8.277,-8.161c2.021,-3.342 3.031,-7.5 3.031,-12.474c0,-4.974 -1.01,-9.132 -3.031,-12.474c-2.021,-3.342 -4.702,-6.023 -8.044,-8.044c-3.342,-2.021 -7.267,-3.459 -11.775,-4.314c-4.508,-0.855 -9.249,-1.282 -14.223,-1.282l-28.213,0l0,52.695Z" style="fill:#A8AECB;fill-rule:nonzero;stroke:#A8AECB;stroke-width:1px;"/><path d="M341.689,343.972l-22.617,0l0,-137.567l-31.244,26.114l-13.29,-15.622l46.866,-38.006l20.285,0l0,165.08Z" style="fill:#A8AECB;fill-rule:nonzero;stroke:#A8AECB;stroke-width:1px;"/></g></g></svg>